<mxfile host="app.diagrams.net" modified="2023-10-05T13:28:53.187Z" agent="Mozilla/5.0 (Windows NT 10.0; Win64; x64) AppleWebKit/537.36 (KHTML, like Gecko) Chrome/117.0.0.0 Safari/537.36" etag="5Qu3UeQMTkowsG8XCveI" version="22.0.0" type="github">
  <diagram name="Seite-1" id="Z--VdE2tIObyakfptAN0">
    <mxGraphModel dx="1434" dy="782" grid="1" gridSize="10" guides="1" tooltips="1" connect="1" arrows="1" fold="1" page="1" pageScale="1" pageWidth="850" pageHeight="1100" math="0" shadow="0">
      <root>
        <mxCell id="0" />
        <mxCell id="1" parent="0" />
        <mxCell id="nFKd9XZwk59usLzo8zVO-6" style="edgeStyle=orthogonalEdgeStyle;rounded=0;orthogonalLoop=1;jettySize=auto;html=1;exitX=0.5;exitY=1;exitDx=0;exitDy=0;entryX=0.5;entryY=0;entryDx=0;entryDy=0;" parent="1" source="nFKd9XZwk59usLzo8zVO-4" target="nFKd9XZwk59usLzo8zVO-13" edge="1">
          <mxGeometry relative="1" as="geometry">
            <mxPoint x="210" y="180" as="targetPoint" />
          </mxGeometry>
        </mxCell>
        <mxCell id="nFKd9XZwk59usLzo8zVO-4" value="1. Welcome" style="rounded=0;whiteSpace=wrap;html=1;" parent="1" vertex="1">
          <mxGeometry x="150" y="70" width="120" height="60" as="geometry" />
        </mxCell>
        <mxCell id="nFKd9XZwk59usLzo8zVO-11" style="edgeStyle=orthogonalEdgeStyle;rounded=0;orthogonalLoop=1;jettySize=auto;html=1;exitX=0.5;exitY=1;exitDx=0;exitDy=0;entryX=0.5;entryY=0;entryDx=0;entryDy=0;" parent="1" target="nFKd9XZwk59usLzo8zVO-12" edge="1">
          <mxGeometry relative="1" as="geometry">
            <mxPoint x="210" y="240" as="sourcePoint" />
            <mxPoint x="210" y="280" as="targetPoint" />
          </mxGeometry>
        </mxCell>
        <mxCell id="nFKd9XZwk59usLzo8zVO-16" style="edgeStyle=orthogonalEdgeStyle;rounded=0;orthogonalLoop=1;jettySize=auto;html=1;exitX=0.5;exitY=1;exitDx=0;exitDy=0;entryX=0.5;entryY=0;entryDx=0;entryDy=0;" parent="1" source="nFKd9XZwk59usLzo8zVO-12" target="nFKd9XZwk59usLzo8zVO-15" edge="1">
          <mxGeometry relative="1" as="geometry" />
        </mxCell>
        <mxCell id="nFKd9XZwk59usLzo8zVO-18" style="edgeStyle=orthogonalEdgeStyle;rounded=0;orthogonalLoop=1;jettySize=auto;html=1;exitX=1;exitY=0.5;exitDx=0;exitDy=0;" parent="1" source="nFKd9XZwk59usLzo8zVO-12" target="nFKd9XZwk59usLzo8zVO-14" edge="1">
          <mxGeometry relative="1" as="geometry" />
        </mxCell>
        <mxCell id="nFKd9XZwk59usLzo8zVO-12" value="Area known?" style="rhombus;whiteSpace=wrap;html=1;" parent="1" vertex="1">
          <mxGeometry x="170" y="280" width="80" height="80" as="geometry" />
        </mxCell>
        <mxCell id="nFKd9XZwk59usLzo8zVO-13" value="inform preferences&amp;nbsp;" style="ellipse;whiteSpace=wrap;html=1;" parent="1" vertex="1">
          <mxGeometry x="150" y="170" width="120" height="70" as="geometry" />
        </mxCell>
        <mxCell id="nFKd9XZwk59usLzo8zVO-37" style="edgeStyle=orthogonalEdgeStyle;rounded=0;orthogonalLoop=1;jettySize=auto;html=1;exitX=1;exitY=0.5;exitDx=0;exitDy=0;entryX=0;entryY=0.5;entryDx=0;entryDy=0;" parent="1" source="nFKd9XZwk59usLzo8zVO-14" target="nFKd9XZwk59usLzo8zVO-30" edge="1">
          <mxGeometry relative="1" as="geometry" />
        </mxCell>
        <mxCell id="nFKd9XZwk59usLzo8zVO-14" value="2. ask area" style="rounded=0;whiteSpace=wrap;html=1;" parent="1" vertex="1">
          <mxGeometry x="290" y="290" width="120" height="60" as="geometry" />
        </mxCell>
        <mxCell id="nFKd9XZwk59usLzo8zVO-21" style="edgeStyle=orthogonalEdgeStyle;rounded=0;orthogonalLoop=1;jettySize=auto;html=1;exitX=0.5;exitY=1;exitDx=0;exitDy=0;entryX=0.5;entryY=0;entryDx=0;entryDy=0;" parent="1" source="nFKd9XZwk59usLzo8zVO-15" target="nFKd9XZwk59usLzo8zVO-20" edge="1">
          <mxGeometry relative="1" as="geometry" />
        </mxCell>
        <mxCell id="nFKd9XZwk59usLzo8zVO-27" style="edgeStyle=orthogonalEdgeStyle;rounded=0;orthogonalLoop=1;jettySize=auto;html=1;exitX=1;exitY=0.5;exitDx=0;exitDy=0;entryX=0;entryY=0.5;entryDx=0;entryDy=0;" parent="1" source="nFKd9XZwk59usLzo8zVO-15" target="nFKd9XZwk59usLzo8zVO-23" edge="1">
          <mxGeometry relative="1" as="geometry" />
        </mxCell>
        <mxCell id="nFKd9XZwk59usLzo8zVO-15" value="Price known?" style="rhombus;whiteSpace=wrap;html=1;" parent="1" vertex="1">
          <mxGeometry x="170" y="390" width="80" height="80" as="geometry" />
        </mxCell>
        <mxCell id="nFKd9XZwk59usLzo8zVO-17" value="yes" style="text;html=1;strokeColor=none;fillColor=none;align=center;verticalAlign=middle;whiteSpace=wrap;rounded=0;" parent="1" vertex="1">
          <mxGeometry x="150" y="360" width="60" height="30" as="geometry" />
        </mxCell>
        <mxCell id="nFKd9XZwk59usLzo8zVO-19" value="no" style="text;html=1;strokeColor=none;fillColor=none;align=center;verticalAlign=middle;whiteSpace=wrap;rounded=0;" parent="1" vertex="1">
          <mxGeometry x="240" y="290" width="60" height="30" as="geometry" />
        </mxCell>
        <mxCell id="nFKd9XZwk59usLzo8zVO-28" style="edgeStyle=orthogonalEdgeStyle;rounded=0;orthogonalLoop=1;jettySize=auto;html=1;exitX=1;exitY=0.5;exitDx=0;exitDy=0;entryX=0;entryY=0.5;entryDx=0;entryDy=0;" parent="1" source="nFKd9XZwk59usLzo8zVO-20" target="nFKd9XZwk59usLzo8zVO-25" edge="1">
          <mxGeometry relative="1" as="geometry" />
        </mxCell>
        <mxCell id="bP_TAvZEBF7LXmz3NIP_-32" style="edgeStyle=orthogonalEdgeStyle;rounded=0;orthogonalLoop=1;jettySize=auto;html=1;exitX=0.5;exitY=1;exitDx=0;exitDy=0;entryX=0.5;entryY=0;entryDx=0;entryDy=0;" parent="1" source="nFKd9XZwk59usLzo8zVO-20" target="bP_TAvZEBF7LXmz3NIP_-31" edge="1">
          <mxGeometry relative="1" as="geometry" />
        </mxCell>
        <mxCell id="nFKd9XZwk59usLzo8zVO-20" value="Food known?" style="rhombus;whiteSpace=wrap;html=1;" parent="1" vertex="1">
          <mxGeometry x="170" y="500" width="80" height="80" as="geometry" />
        </mxCell>
        <mxCell id="nFKd9XZwk59usLzo8zVO-22" value="yes" style="text;html=1;strokeColor=none;fillColor=none;align=center;verticalAlign=middle;whiteSpace=wrap;rounded=0;" parent="1" vertex="1">
          <mxGeometry x="150" y="470" width="60" height="30" as="geometry" />
        </mxCell>
        <mxCell id="nFKd9XZwk59usLzo8zVO-38" style="edgeStyle=orthogonalEdgeStyle;rounded=0;orthogonalLoop=1;jettySize=auto;html=1;exitX=1;exitY=0.5;exitDx=0;exitDy=0;entryX=0;entryY=0.5;entryDx=0;entryDy=0;" parent="1" source="nFKd9XZwk59usLzo8zVO-23" target="nFKd9XZwk59usLzo8zVO-35" edge="1">
          <mxGeometry relative="1" as="geometry" />
        </mxCell>
        <mxCell id="nFKd9XZwk59usLzo8zVO-23" value="3. ask price" style="rounded=0;whiteSpace=wrap;html=1;" parent="1" vertex="1">
          <mxGeometry x="290" y="400" width="120" height="60" as="geometry" />
        </mxCell>
        <mxCell id="nFKd9XZwk59usLzo8zVO-24" value="no" style="text;html=1;strokeColor=none;fillColor=none;align=center;verticalAlign=middle;whiteSpace=wrap;rounded=0;" parent="1" vertex="1">
          <mxGeometry x="240" y="400" width="60" height="30" as="geometry" />
        </mxCell>
        <mxCell id="nFKd9XZwk59usLzo8zVO-44" style="edgeStyle=orthogonalEdgeStyle;rounded=0;orthogonalLoop=1;jettySize=auto;html=1;exitX=1;exitY=0.5;exitDx=0;exitDy=0;entryX=0;entryY=0.5;entryDx=0;entryDy=0;" parent="1" source="nFKd9XZwk59usLzo8zVO-25" target="nFKd9XZwk59usLzo8zVO-41" edge="1">
          <mxGeometry relative="1" as="geometry" />
        </mxCell>
        <mxCell id="nFKd9XZwk59usLzo8zVO-25" value="4. ask kind of food" style="rounded=0;whiteSpace=wrap;html=1;" parent="1" vertex="1">
          <mxGeometry x="290" y="510" width="120" height="60" as="geometry" />
        </mxCell>
        <mxCell id="nFKd9XZwk59usLzo8zVO-26" value="no" style="text;html=1;strokeColor=none;fillColor=none;align=center;verticalAlign=middle;whiteSpace=wrap;rounded=0;" parent="1" vertex="1">
          <mxGeometry x="240" y="510" width="60" height="30" as="geometry" />
        </mxCell>
        <mxCell id="bP_TAvZEBF7LXmz3NIP_-22" style="edgeStyle=orthogonalEdgeStyle;rounded=0;orthogonalLoop=1;jettySize=auto;html=1;exitX=1;exitY=0.5;exitDx=0;exitDy=0;entryX=0.5;entryY=0;entryDx=0;entryDy=0;" parent="1" source="nFKd9XZwk59usLzo8zVO-30" target="nFKd9XZwk59usLzo8zVO-54" edge="1">
          <mxGeometry relative="1" as="geometry" />
        </mxCell>
        <mxCell id="nFKd9XZwk59usLzo8zVO-30" value="inform area" style="ellipse;whiteSpace=wrap;html=1;" parent="1" vertex="1">
          <mxGeometry x="440" y="295" width="90" height="50" as="geometry" />
        </mxCell>
        <mxCell id="bP_TAvZEBF7LXmz3NIP_-23" style="edgeStyle=orthogonalEdgeStyle;rounded=0;orthogonalLoop=1;jettySize=auto;html=1;exitX=1;exitY=0.5;exitDx=0;exitDy=0;entryX=0;entryY=0.5;entryDx=0;entryDy=0;" parent="1" source="nFKd9XZwk59usLzo8zVO-35" target="nFKd9XZwk59usLzo8zVO-54" edge="1">
          <mxGeometry relative="1" as="geometry" />
        </mxCell>
        <mxCell id="nFKd9XZwk59usLzo8zVO-35" value="inform price" style="ellipse;whiteSpace=wrap;html=1;" parent="1" vertex="1">
          <mxGeometry x="440" y="405" width="90" height="50" as="geometry" />
        </mxCell>
        <mxCell id="bP_TAvZEBF7LXmz3NIP_-24" style="edgeStyle=orthogonalEdgeStyle;rounded=0;orthogonalLoop=1;jettySize=auto;html=1;exitX=1;exitY=0.5;exitDx=0;exitDy=0;entryX=0.5;entryY=1;entryDx=0;entryDy=0;" parent="1" source="nFKd9XZwk59usLzo8zVO-41" target="nFKd9XZwk59usLzo8zVO-54" edge="1">
          <mxGeometry relative="1" as="geometry" />
        </mxCell>
        <mxCell id="nFKd9XZwk59usLzo8zVO-41" value="inform kind of food" style="ellipse;whiteSpace=wrap;html=1;" parent="1" vertex="1">
          <mxGeometry x="440" y="515" width="90" height="50" as="geometry" />
        </mxCell>
        <mxCell id="nFKd9XZwk59usLzo8zVO-48" style="edgeStyle=orthogonalEdgeStyle;rounded=0;orthogonalLoop=1;jettySize=auto;html=1;exitX=0;exitY=0.5;exitDx=0;exitDy=0;entryX=1;entryY=0.5;entryDx=0;entryDy=0;" parent="1" target="nFKd9XZwk59usLzo8zVO-47" edge="1">
          <mxGeometry relative="1" as="geometry">
            <mxPoint x="160.75" y="727.5" as="sourcePoint" />
          </mxGeometry>
        </mxCell>
        <mxCell id="nFKd9XZwk59usLzo8zVO-49" style="edgeStyle=orthogonalEdgeStyle;rounded=0;orthogonalLoop=1;jettySize=auto;html=1;exitX=0.5;exitY=0;exitDx=0;exitDy=0;entryX=0;entryY=0.5;entryDx=0;entryDy=0;" parent="1" source="nFKd9XZwk59usLzo8zVO-47" target="nFKd9XZwk59usLzo8zVO-12" edge="1">
          <mxGeometry relative="1" as="geometry" />
        </mxCell>
        <mxCell id="nFKd9XZwk59usLzo8zVO-47" value="deny + inform" style="ellipse;whiteSpace=wrap;html=1;" parent="1" vertex="1">
          <mxGeometry x="20.75" y="702.5" width="80" height="50" as="geometry" />
        </mxCell>
        <mxCell id="bP_TAvZEBF7LXmz3NIP_-30" style="edgeStyle=orthogonalEdgeStyle;rounded=0;orthogonalLoop=1;jettySize=auto;html=1;exitX=0.5;exitY=0;exitDx=0;exitDy=0;entryX=1;entryY=0.5;entryDx=0;entryDy=0;" parent="1" source="nFKd9XZwk59usLzo8zVO-53" target="nFKd9XZwk59usLzo8zVO-13" edge="1">
          <mxGeometry relative="1" as="geometry" />
        </mxCell>
        <mxCell id="nFKd9XZwk59usLzo8zVO-53" value="6. ask alternative (negate)" style="rounded=0;whiteSpace=wrap;html=1;" parent="1" vertex="1">
          <mxGeometry x="680" y="400" width="120" height="60" as="geometry" />
        </mxCell>
        <mxCell id="bP_TAvZEBF7LXmz3NIP_-25" style="edgeStyle=orthogonalEdgeStyle;rounded=0;orthogonalLoop=1;jettySize=auto;html=1;exitX=1;exitY=0.5;exitDx=0;exitDy=0;entryX=0;entryY=0.5;entryDx=0;entryDy=0;" parent="1" source="nFKd9XZwk59usLzo8zVO-54" target="nFKd9XZwk59usLzo8zVO-53" edge="1">
          <mxGeometry relative="1" as="geometry" />
        </mxCell>
        <mxCell id="bP_TAvZEBF7LXmz3NIP_-26" style="edgeStyle=orthogonalEdgeStyle;rounded=0;orthogonalLoop=1;jettySize=auto;html=1;exitX=1;exitY=0;exitDx=0;exitDy=0;entryX=0.5;entryY=0;entryDx=0;entryDy=0;" parent="1" source="nFKd9XZwk59usLzo8zVO-54" target="nFKd9XZwk59usLzo8zVO-12" edge="1">
          <mxGeometry relative="1" as="geometry">
            <Array as="points">
              <mxPoint x="650" y="410" />
              <mxPoint x="650" y="260" />
              <mxPoint x="210" y="260" />
            </Array>
          </mxGeometry>
        </mxCell>
        <mxCell id="nFKd9XZwk59usLzo8zVO-54" value="Restaurants available?" style="rhombus;whiteSpace=wrap;html=1;" parent="1" vertex="1">
          <mxGeometry x="560" y="390" width="80" height="80" as="geometry" />
        </mxCell>
        <mxCell id="nFKd9XZwk59usLzo8zVO-60" style="edgeStyle=orthogonalEdgeStyle;rounded=0;orthogonalLoop=1;jettySize=auto;html=1;exitX=1;exitY=0.5;exitDx=0;exitDy=0;entryX=0;entryY=0.5;entryDx=0;entryDy=0;" parent="1" source="nFKd9XZwk59usLzo8zVO-55" target="nFKd9XZwk59usLzo8zVO-59" edge="1">
          <mxGeometry relative="1" as="geometry" />
        </mxCell>
        <mxCell id="bP_TAvZEBF7LXmz3NIP_-2" style="edgeStyle=orthogonalEdgeStyle;rounded=0;orthogonalLoop=1;jettySize=auto;html=1;exitX=0.5;exitY=1;exitDx=0;exitDy=0;entryX=0.5;entryY=0;entryDx=0;entryDy=0;" parent="1" source="nFKd9XZwk59usLzo8zVO-55" target="nFKd9XZwk59usLzo8zVO-65" edge="1">
          <mxGeometry relative="1" as="geometry" />
        </mxCell>
        <mxCell id="bP_TAvZEBF7LXmz3NIP_-5" style="edgeStyle=orthogonalEdgeStyle;rounded=0;orthogonalLoop=1;jettySize=auto;html=1;exitX=0.488;exitY=0.993;exitDx=0;exitDy=0;entryX=0.5;entryY=0;entryDx=0;entryDy=0;exitPerimeter=0;" parent="1" source="nFKd9XZwk59usLzo8zVO-55" target="nFKd9XZwk59usLzo8zVO-64" edge="1">
          <mxGeometry relative="1" as="geometry">
            <Array as="points">
              <mxPoint x="209.75" y="767.5" />
              <mxPoint x="86.75" y="767.5" />
            </Array>
          </mxGeometry>
        </mxCell>
        <mxCell id="bP_TAvZEBF7LXmz3NIP_-6" style="edgeStyle=orthogonalEdgeStyle;rounded=0;orthogonalLoop=1;jettySize=auto;html=1;exitX=0.49;exitY=0.997;exitDx=0;exitDy=0;entryX=0.5;entryY=0;entryDx=0;entryDy=0;exitPerimeter=0;" parent="1" source="nFKd9XZwk59usLzo8zVO-55" target="nFKd9XZwk59usLzo8zVO-66" edge="1">
          <mxGeometry relative="1" as="geometry">
            <Array as="points">
              <mxPoint x="209.75" y="767.5" />
              <mxPoint x="323.75" y="767.5" />
            </Array>
          </mxGeometry>
        </mxCell>
        <mxCell id="nFKd9XZwk59usLzo8zVO-55" value="11. suggest restaurant" style="rounded=0;whiteSpace=wrap;html=1;" parent="1" vertex="1">
          <mxGeometry x="150.75" y="702.5" width="120" height="60" as="geometry" />
        </mxCell>
        <mxCell id="nFKd9XZwk59usLzo8zVO-58" value="yes" style="text;html=1;strokeColor=none;fillColor=none;align=center;verticalAlign=middle;whiteSpace=wrap;rounded=0;" parent="1" vertex="1">
          <mxGeometry x="150.75" y="580" width="60" height="30" as="geometry" />
        </mxCell>
        <mxCell id="nFKd9XZwk59usLzo8zVO-59" value="Change&lt;br style=&quot;border-color: var(--border-color);&quot;&gt;(reqalts)" style="ellipse;whiteSpace=wrap;html=1;" parent="1" vertex="1">
          <mxGeometry x="328.75" y="700" width="97.5" height="65" as="geometry" />
        </mxCell>
        <mxCell id="nFKd9XZwk59usLzo8zVO-63" value="" style="curved=1;endArrow=classic;html=1;rounded=0;exitX=1;exitY=0.5;exitDx=0;exitDy=0;entryX=1;entryY=0;entryDx=0;entryDy=0;" parent="1" source="nFKd9XZwk59usLzo8zVO-59" target="nFKd9XZwk59usLzo8zVO-55" edge="1">
          <mxGeometry width="50" height="50" relative="1" as="geometry">
            <mxPoint x="390" y="620" as="sourcePoint" />
            <mxPoint x="440" y="570" as="targetPoint" />
            <Array as="points">
              <mxPoint x="440" y="620" />
            </Array>
          </mxGeometry>
        </mxCell>
        <mxCell id="bP_TAvZEBF7LXmz3NIP_-7" style="edgeStyle=orthogonalEdgeStyle;rounded=0;orthogonalLoop=1;jettySize=auto;html=1;exitX=0.5;exitY=1;exitDx=0;exitDy=0;entryX=0.5;entryY=0;entryDx=0;entryDy=0;" parent="1" source="nFKd9XZwk59usLzo8zVO-64" target="nFKd9XZwk59usLzo8zVO-67" edge="1">
          <mxGeometry relative="1" as="geometry" />
        </mxCell>
        <mxCell id="nFKd9XZwk59usLzo8zVO-64" value="request phone" style="ellipse;whiteSpace=wrap;html=1;" parent="1" vertex="1">
          <mxGeometry x="41.75" y="787.5" width="90" height="60" as="geometry" />
        </mxCell>
        <mxCell id="bP_TAvZEBF7LXmz3NIP_-16" style="edgeStyle=orthogonalEdgeStyle;rounded=0;orthogonalLoop=1;jettySize=auto;html=1;exitX=0.5;exitY=1;exitDx=0;exitDy=0;" parent="1" source="nFKd9XZwk59usLzo8zVO-65" target="nFKd9XZwk59usLzo8zVO-68" edge="1">
          <mxGeometry relative="1" as="geometry" />
        </mxCell>
        <mxCell id="nFKd9XZwk59usLzo8zVO-65" value="request address" style="ellipse;whiteSpace=wrap;html=1;" parent="1" vertex="1">
          <mxGeometry x="164.25" y="787.5" width="90" height="60" as="geometry" />
        </mxCell>
        <mxCell id="bP_TAvZEBF7LXmz3NIP_-21" style="edgeStyle=orthogonalEdgeStyle;rounded=0;orthogonalLoop=1;jettySize=auto;html=1;exitX=1;exitY=0.5;exitDx=0;exitDy=0;entryX=0;entryY=0.5;entryDx=0;entryDy=0;" parent="1" source="nFKd9XZwk59usLzo8zVO-66" target="nFKd9XZwk59usLzo8zVO-70" edge="1">
          <mxGeometry relative="1" as="geometry" />
        </mxCell>
        <mxCell id="nFKd9XZwk59usLzo8zVO-66" value="goodbye" style="ellipse;whiteSpace=wrap;html=1;" parent="1" vertex="1">
          <mxGeometry x="279.25" y="787.5" width="90" height="60" as="geometry" />
        </mxCell>
        <mxCell id="bP_TAvZEBF7LXmz3NIP_-14" style="edgeStyle=orthogonalEdgeStyle;rounded=0;orthogonalLoop=1;jettySize=auto;html=1;exitX=1;exitY=0;exitDx=0;exitDy=0;entryX=0;entryY=0.5;entryDx=0;entryDy=0;" parent="1" source="nFKd9XZwk59usLzo8zVO-67" target="nFKd9XZwk59usLzo8zVO-65" edge="1">
          <mxGeometry relative="1" as="geometry" />
        </mxCell>
        <mxCell id="bP_TAvZEBF7LXmz3NIP_-15" style="edgeStyle=orthogonalEdgeStyle;rounded=0;orthogonalLoop=1;jettySize=auto;html=1;exitX=1;exitY=0;exitDx=0;exitDy=0;entryX=0;entryY=0.5;entryDx=0;entryDy=0;" parent="1" source="nFKd9XZwk59usLzo8zVO-67" target="nFKd9XZwk59usLzo8zVO-66" edge="1">
          <mxGeometry relative="1" as="geometry">
            <Array as="points">
              <mxPoint x="136.25" y="857.5" />
              <mxPoint x="259.25" y="857.5" />
              <mxPoint x="259.25" y="817.5" />
            </Array>
          </mxGeometry>
        </mxCell>
        <mxCell id="nFKd9XZwk59usLzo8zVO-67" value="8. give phone" style="rounded=0;whiteSpace=wrap;html=1;" parent="1" vertex="1">
          <mxGeometry x="41.75" y="877.5" width="95" height="50" as="geometry" />
        </mxCell>
        <mxCell id="bP_TAvZEBF7LXmz3NIP_-17" style="edgeStyle=orthogonalEdgeStyle;rounded=0;orthogonalLoop=1;jettySize=auto;html=1;exitX=0;exitY=0;exitDx=0;exitDy=0;" parent="1" source="nFKd9XZwk59usLzo8zVO-68" edge="1">
          <mxGeometry relative="1" as="geometry">
            <mxPoint x="161.56034482758628" y="877.5" as="targetPoint" />
          </mxGeometry>
        </mxCell>
        <mxCell id="bP_TAvZEBF7LXmz3NIP_-19" style="edgeStyle=orthogonalEdgeStyle;rounded=0;orthogonalLoop=1;jettySize=auto;html=1;exitX=0.5;exitY=1;exitDx=0;exitDy=0;entryX=0;entryY=0.5;entryDx=0;entryDy=0;" parent="1" source="nFKd9XZwk59usLzo8zVO-68" target="nFKd9XZwk59usLzo8zVO-64" edge="1">
          <mxGeometry relative="1" as="geometry">
            <Array as="points">
              <mxPoint x="189.25" y="927.5" />
              <mxPoint x="189.25" y="947.5" />
              <mxPoint x="22.25" y="947.5" />
              <mxPoint x="22.25" y="817.5" />
            </Array>
          </mxGeometry>
        </mxCell>
        <mxCell id="bP_TAvZEBF7LXmz3NIP_-20" style="edgeStyle=orthogonalEdgeStyle;rounded=0;orthogonalLoop=1;jettySize=auto;html=1;exitX=0.5;exitY=1;exitDx=0;exitDy=0;" parent="1" source="nFKd9XZwk59usLzo8zVO-68" edge="1">
          <mxGeometry relative="1" as="geometry">
            <mxPoint x="279.2499999999999" y="817.5" as="targetPoint" />
            <Array as="points">
              <mxPoint x="229.25" y="927.5" />
              <mxPoint x="229.25" y="947.5" />
              <mxPoint x="279.25" y="947.5" />
            </Array>
          </mxGeometry>
        </mxCell>
        <mxCell id="nFKd9XZwk59usLzo8zVO-68" value="9. give address" style="rounded=0;whiteSpace=wrap;html=1;" parent="1" vertex="1">
          <mxGeometry x="161.75" y="877.5" width="95" height="50" as="geometry" />
        </mxCell>
        <mxCell id="nFKd9XZwk59usLzo8zVO-70" value="17. goodbye" style="rounded=0;whiteSpace=wrap;html=1;" parent="1" vertex="1">
          <mxGeometry x="424.25" y="792.5" width="95" height="50" as="geometry" />
        </mxCell>
        <mxCell id="bP_TAvZEBF7LXmz3NIP_-28" value="no" style="text;html=1;strokeColor=none;fillColor=none;align=center;verticalAlign=middle;whiteSpace=wrap;rounded=0;" parent="1" vertex="1">
          <mxGeometry x="630" y="405" width="60" height="30" as="geometry" />
        </mxCell>
        <mxCell id="bP_TAvZEBF7LXmz3NIP_-29" value="yes" style="text;html=1;strokeColor=none;fillColor=none;align=center;verticalAlign=middle;whiteSpace=wrap;rounded=0;" parent="1" vertex="1">
          <mxGeometry x="600" y="380" width="60" height="30" as="geometry" />
        </mxCell>
        <mxCell id="bP_TAvZEBF7LXmz3NIP_-33" style="edgeStyle=orthogonalEdgeStyle;rounded=0;orthogonalLoop=1;jettySize=auto;html=1;exitX=0.5;exitY=1;exitDx=0;exitDy=0;entryX=0.5;entryY=0;entryDx=0;entryDy=0;" parent="1" source="bP_TAvZEBF7LXmz3NIP_-31" target="nFKd9XZwk59usLzo8zVO-55" edge="1">
          <mxGeometry relative="1" as="geometry" />
        </mxCell>
        <mxCell id="bP_TAvZEBF7LXmz3NIP_-35" style="edgeStyle=orthogonalEdgeStyle;rounded=0;orthogonalLoop=1;jettySize=auto;html=1;exitX=1;exitY=0.5;exitDx=0;exitDy=0;entryX=0.5;entryY=1;entryDx=0;entryDy=0;" parent="1" source="bP_TAvZEBF7LXmz3NIP_-31" target="nFKd9XZwk59usLzo8zVO-53" edge="1">
          <mxGeometry relative="1" as="geometry" />
        </mxCell>
        <mxCell id="bP_TAvZEBF7LXmz3NIP_-31" value="Restaurants available?" style="rhombus;whiteSpace=wrap;html=1;" parent="1" vertex="1">
          <mxGeometry x="170.75" y="600" width="80" height="80" as="geometry" />
        </mxCell>
        <mxCell id="bP_TAvZEBF7LXmz3NIP_-34" value="yes" style="text;html=1;strokeColor=none;fillColor=none;align=center;verticalAlign=middle;whiteSpace=wrap;rounded=0;" parent="1" vertex="1">
          <mxGeometry x="150.75" y="670" width="60" height="30" as="geometry" />
        </mxCell>
        <mxCell id="bP_TAvZEBF7LXmz3NIP_-36" value="no" style="text;html=1;strokeColor=none;fillColor=none;align=center;verticalAlign=middle;whiteSpace=wrap;rounded=0;" parent="1" vertex="1">
          <mxGeometry x="240" y="610" width="60" height="30" as="geometry" />
        </mxCell>
        <mxCell id="SjfyB3PK_ZTr_FAXUnH7-68" style="edgeStyle=orthogonalEdgeStyle;rounded=0;orthogonalLoop=1;jettySize=auto;html=1;entryX=0;entryY=0.5;entryDx=0;entryDy=0;" parent="1" source="SjfyB3PK_ZTr_FAXUnH7-66" target="SjfyB3PK_ZTr_FAXUnH7-67" edge="1">
          <mxGeometry relative="1" as="geometry" />
        </mxCell>
        <mxCell id="SjfyB3PK_ZTr_FAXUnH7-71" style="edgeStyle=orthogonalEdgeStyle;rounded=0;orthogonalLoop=1;jettySize=auto;html=1;entryX=0.5;entryY=0;entryDx=0;entryDy=0;" parent="1" source="SjfyB3PK_ZTr_FAXUnH7-66" target="SjfyB3PK_ZTr_FAXUnH7-70" edge="1">
          <mxGeometry relative="1" as="geometry" />
        </mxCell>
        <mxCell id="SjfyB3PK_ZTr_FAXUnH7-74" style="edgeStyle=orthogonalEdgeStyle;rounded=0;orthogonalLoop=1;jettySize=auto;html=1;entryX=0;entryY=0.5;entryDx=0;entryDy=0;exitX=0.25;exitY=0;exitDx=0;exitDy=0;" parent="1" source="SjfyB3PK_ZTr_FAXUnH7-66" target="SjfyB3PK_ZTr_FAXUnH7-73" edge="1">
          <mxGeometry relative="1" as="geometry">
            <Array as="points">
              <mxPoint x="1150" y="460" />
            </Array>
          </mxGeometry>
        </mxCell>
        <mxCell id="SjfyB3PK_ZTr_FAXUnH7-81" style="edgeStyle=orthogonalEdgeStyle;rounded=0;orthogonalLoop=1;jettySize=auto;html=1;" parent="1" source="SjfyB3PK_ZTr_FAXUnH7-66" target="SjfyB3PK_ZTr_FAXUnH7-80" edge="1">
          <mxGeometry relative="1" as="geometry">
            <Array as="points">
              <mxPoint x="1040" y="420" />
              <mxPoint x="1040" y="420" />
            </Array>
          </mxGeometry>
        </mxCell>
        <mxCell id="SjfyB3PK_ZTr_FAXUnH7-66" value="1. Welcome" style="rounded=0;whiteSpace=wrap;html=1;direction=west;" parent="1" vertex="1">
          <mxGeometry x="1060" y="380" width="120" height="60" as="geometry" />
        </mxCell>
        <mxCell id="SjfyB3PK_ZTr_FAXUnH7-67" value="2. Goodbye" style="rounded=0;whiteSpace=wrap;html=1;" parent="1" vertex="1">
          <mxGeometry x="1275" y="380" width="120" height="60" as="geometry" />
        </mxCell>
        <mxCell id="SjfyB3PK_ZTr_FAXUnH7-88" style="edgeStyle=orthogonalEdgeStyle;rounded=0;orthogonalLoop=1;jettySize=auto;html=1;entryX=0.548;entryY=-0.044;entryDx=0;entryDy=0;entryPerimeter=0;exitX=0;exitY=0.5;exitDx=0;exitDy=0;" parent="1" source="SjfyB3PK_ZTr_FAXUnH7-69" target="SjfyB3PK_ZTr_FAXUnH7-83" edge="1">
          <mxGeometry relative="1" as="geometry">
            <mxPoint x="1030" y="690" as="targetPoint" />
          </mxGeometry>
        </mxCell>
        <mxCell id="SjfyB3PK_ZTr_FAXUnH7-91" style="edgeStyle=orthogonalEdgeStyle;rounded=0;orthogonalLoop=1;jettySize=auto;html=1;exitX=1;exitY=0.5;exitDx=0;exitDy=0;entryX=0.632;entryY=-0.053;entryDx=0;entryDy=0;entryPerimeter=0;" parent="1" source="SjfyB3PK_ZTr_FAXUnH7-69" target="SjfyB3PK_ZTr_FAXUnH7-86" edge="1">
          <mxGeometry relative="1" as="geometry" />
        </mxCell>
        <mxCell id="SjfyB3PK_ZTr_FAXUnH7-134" style="edgeStyle=orthogonalEdgeStyle;rounded=0;orthogonalLoop=1;jettySize=auto;html=1;exitX=1;exitY=0.25;exitDx=0;exitDy=0;entryX=0.5;entryY=0;entryDx=0;entryDy=0;" parent="1" source="SjfyB3PK_ZTr_FAXUnH7-69" target="SjfyB3PK_ZTr_FAXUnH7-132" edge="1">
          <mxGeometry relative="1" as="geometry">
            <Array as="points">
              <mxPoint x="1510" y="585" />
            </Array>
          </mxGeometry>
        </mxCell>
        <mxCell id="SjfyB3PK_ZTr_FAXUnH7-69" value="3. Ask for information" style="rounded=0;whiteSpace=wrap;html=1;" parent="1" vertex="1">
          <mxGeometry x="1060" y="570" width="120" height="60" as="geometry" />
        </mxCell>
        <mxCell id="SjfyB3PK_ZTr_FAXUnH7-72" style="edgeStyle=orthogonalEdgeStyle;rounded=0;orthogonalLoop=1;jettySize=auto;html=1;entryX=0.5;entryY=0;entryDx=0;entryDy=0;" parent="1" source="SjfyB3PK_ZTr_FAXUnH7-70" target="SjfyB3PK_ZTr_FAXUnH7-69" edge="1">
          <mxGeometry relative="1" as="geometry" />
        </mxCell>
        <mxCell id="SjfyB3PK_ZTr_FAXUnH7-70" value="Hello/&amp;nbsp;&lt;br&gt;Inform" style="ellipse;whiteSpace=wrap;html=1;" parent="1" vertex="1">
          <mxGeometry x="1086.25" y="485" width="67.5" height="40" as="geometry" />
        </mxCell>
        <mxCell id="SjfyB3PK_ZTr_FAXUnH7-75" style="edgeStyle=orthogonalEdgeStyle;rounded=0;orthogonalLoop=1;jettySize=auto;html=1;entryX=0.5;entryY=1;entryDx=0;entryDy=0;" parent="1" source="SjfyB3PK_ZTr_FAXUnH7-73" target="SjfyB3PK_ZTr_FAXUnH7-67" edge="1">
          <mxGeometry relative="1" as="geometry" />
        </mxCell>
        <mxCell id="SjfyB3PK_ZTr_FAXUnH7-73" value="Bye" style="ellipse;whiteSpace=wrap;html=1;" parent="1" vertex="1">
          <mxGeometry x="1190" y="435" width="70" height="50" as="geometry" />
        </mxCell>
        <mxCell id="SjfyB3PK_ZTr_FAXUnH7-82" style="edgeStyle=orthogonalEdgeStyle;rounded=0;orthogonalLoop=1;jettySize=auto;html=1;" parent="1" source="SjfyB3PK_ZTr_FAXUnH7-80" edge="1">
          <mxGeometry relative="1" as="geometry">
            <mxPoint x="1110" y="380" as="targetPoint" />
            <Array as="points">
              <mxPoint x="1000" y="350" />
              <mxPoint x="1110" y="350" />
              <mxPoint x="1110" y="380" />
            </Array>
          </mxGeometry>
        </mxCell>
        <mxCell id="SjfyB3PK_ZTr_FAXUnH7-80" value="Restart/&lt;br&gt;Repeat" style="ellipse;whiteSpace=wrap;html=1;" parent="1" vertex="1">
          <mxGeometry x="970" y="386.66" width="70" height="43.34" as="geometry" />
        </mxCell>
        <mxCell id="SjfyB3PK_ZTr_FAXUnH7-126" style="edgeStyle=orthogonalEdgeStyle;rounded=0;orthogonalLoop=1;jettySize=auto;html=1;entryX=0.501;entryY=-0.03;entryDx=0;entryDy=0;entryPerimeter=0;" parent="1" source="SjfyB3PK_ZTr_FAXUnH7-83" target="SjfyB3PK_ZTr_FAXUnH7-98" edge="1">
          <mxGeometry relative="1" as="geometry">
            <Array as="points">
              <mxPoint x="970" y="801" />
            </Array>
          </mxGeometry>
        </mxCell>
        <mxCell id="SjfyB3PK_ZTr_FAXUnH7-127" style="edgeStyle=orthogonalEdgeStyle;rounded=0;orthogonalLoop=1;jettySize=auto;html=1;entryX=1;entryY=1;entryDx=0;entryDy=0;" parent="1" source="SjfyB3PK_ZTr_FAXUnH7-83" target="SjfyB3PK_ZTr_FAXUnH7-99" edge="1">
          <mxGeometry relative="1" as="geometry">
            <Array as="points">
              <mxPoint x="930" y="720" />
              <mxPoint x="930" y="900" />
              <mxPoint x="1420" y="900" />
              <mxPoint x="1420" y="844" />
            </Array>
          </mxGeometry>
        </mxCell>
        <mxCell id="SjfyB3PK_ZTr_FAXUnH7-128" style="edgeStyle=orthogonalEdgeStyle;rounded=0;orthogonalLoop=1;jettySize=auto;html=1;entryX=0.657;entryY=0.986;entryDx=0;entryDy=0;entryPerimeter=0;" parent="1" source="SjfyB3PK_ZTr_FAXUnH7-83" target="SjfyB3PK_ZTr_FAXUnH7-100" edge="1">
          <mxGeometry relative="1" as="geometry">
            <Array as="points">
              <mxPoint x="940" y="730" />
              <mxPoint x="940" y="890" />
              <mxPoint x="1310" y="890" />
              <mxPoint x="1310" y="847" />
            </Array>
          </mxGeometry>
        </mxCell>
        <mxCell id="SjfyB3PK_ZTr_FAXUnH7-83" value="4. Area" style="rounded=0;whiteSpace=wrap;html=1;" parent="1" vertex="1">
          <mxGeometry x="950" y="700" width="90" height="45" as="geometry" />
        </mxCell>
        <mxCell id="SjfyB3PK_ZTr_FAXUnH7-119" style="edgeStyle=orthogonalEdgeStyle;rounded=0;orthogonalLoop=1;jettySize=auto;html=1;entryX=0.633;entryY=0.982;entryDx=0;entryDy=0;entryPerimeter=0;exitX=0.322;exitY=1.002;exitDx=0;exitDy=0;exitPerimeter=0;" parent="1" source="SjfyB3PK_ZTr_FAXUnH7-85" target="SjfyB3PK_ZTr_FAXUnH7-99" edge="1">
          <mxGeometry relative="1" as="geometry">
            <Array as="points">
              <mxPoint x="1100" y="746" />
              <mxPoint x="1100" y="870" />
              <mxPoint x="1373" y="870" />
            </Array>
          </mxGeometry>
        </mxCell>
        <mxCell id="SjfyB3PK_ZTr_FAXUnH7-122" style="edgeStyle=orthogonalEdgeStyle;rounded=0;orthogonalLoop=1;jettySize=auto;html=1;exitX=0.114;exitY=0.989;exitDx=0;exitDy=0;entryX=1;entryY=0.5;entryDx=0;entryDy=0;exitPerimeter=0;" parent="1" source="SjfyB3PK_ZTr_FAXUnH7-85" target="SjfyB3PK_ZTr_FAXUnH7-98" edge="1">
          <mxGeometry relative="1" as="geometry">
            <Array as="points">
              <mxPoint x="1080" y="822" />
            </Array>
          </mxGeometry>
        </mxCell>
        <mxCell id="SjfyB3PK_ZTr_FAXUnH7-85" value="5. Price" style="rounded=0;whiteSpace=wrap;html=1;" parent="1" vertex="1">
          <mxGeometry x="1070" y="700" width="90" height="46.25" as="geometry" />
        </mxCell>
        <mxCell id="SjfyB3PK_ZTr_FAXUnH7-123" style="edgeStyle=orthogonalEdgeStyle;rounded=0;orthogonalLoop=1;jettySize=auto;html=1;exitX=0.25;exitY=1;exitDx=0;exitDy=0;entryX=0;entryY=0.5;entryDx=0;entryDy=0;" parent="1" source="SjfyB3PK_ZTr_FAXUnH7-86" target="SjfyB3PK_ZTr_FAXUnH7-100" edge="1">
          <mxGeometry relative="1" as="geometry">
            <Array as="points">
              <mxPoint x="1220" y="748" />
              <mxPoint x="1220" y="828" />
            </Array>
          </mxGeometry>
        </mxCell>
        <mxCell id="SjfyB3PK_ZTr_FAXUnH7-124" style="edgeStyle=orthogonalEdgeStyle;rounded=0;orthogonalLoop=1;jettySize=auto;html=1;exitX=0.421;exitY=1;exitDx=0;exitDy=0;entryX=0;entryY=0;entryDx=0;entryDy=0;exitPerimeter=0;" parent="1" source="SjfyB3PK_ZTr_FAXUnH7-86" target="SjfyB3PK_ZTr_FAXUnH7-99" edge="1">
          <mxGeometry relative="1" as="geometry">
            <Array as="points">
              <mxPoint x="1230" y="800" />
              <mxPoint x="1344" y="800" />
              <mxPoint x="1344" y="816" />
            </Array>
            <mxPoint x="1240" y="750" as="sourcePoint" />
            <mxPoint x="1367.5" y="812.5" as="targetPoint" />
          </mxGeometry>
        </mxCell>
        <mxCell id="SjfyB3PK_ZTr_FAXUnH7-125" style="edgeStyle=orthogonalEdgeStyle;rounded=0;orthogonalLoop=1;jettySize=auto;html=1;entryX=1;entryY=1;entryDx=0;entryDy=0;" parent="1" source="SjfyB3PK_ZTr_FAXUnH7-86" target="SjfyB3PK_ZTr_FAXUnH7-98" edge="1">
          <mxGeometry relative="1" as="geometry">
            <Array as="points">
              <mxPoint x="1210" y="850" />
              <mxPoint x="991" y="850" />
              <mxPoint x="991" y="843" />
              <mxPoint x="991" y="843" />
            </Array>
          </mxGeometry>
        </mxCell>
        <mxCell id="SjfyB3PK_ZTr_FAXUnH7-86" value="6. Type" style="rounded=0;whiteSpace=wrap;html=1;" parent="1" vertex="1">
          <mxGeometry x="1190" y="700" width="95" height="47.5" as="geometry" />
        </mxCell>
        <mxCell id="SjfyB3PK_ZTr_FAXUnH7-129" style="edgeStyle=orthogonalEdgeStyle;rounded=0;orthogonalLoop=1;jettySize=auto;html=1;entryX=0.75;entryY=0;entryDx=0;entryDy=0;" parent="1" source="SjfyB3PK_ZTr_FAXUnH7-98" target="SjfyB3PK_ZTr_FAXUnH7-66" edge="1">
          <mxGeometry relative="1" as="geometry">
            <Array as="points">
              <mxPoint x="910" y="823" />
              <mxPoint x="910" y="460" />
              <mxPoint x="1090" y="460" />
            </Array>
          </mxGeometry>
        </mxCell>
        <mxCell id="SjfyB3PK_ZTr_FAXUnH7-98" value="Restart" style="ellipse;whiteSpace=wrap;html=1;" parent="1" vertex="1">
          <mxGeometry x="940" y="802.5" width="60" height="40" as="geometry" />
        </mxCell>
        <mxCell id="SjfyB3PK_ZTr_FAXUnH7-131" style="edgeStyle=orthogonalEdgeStyle;rounded=0;orthogonalLoop=1;jettySize=auto;html=1;entryX=0.75;entryY=1;entryDx=0;entryDy=0;exitX=0.5;exitY=0;exitDx=0;exitDy=0;" parent="1" source="SjfyB3PK_ZTr_FAXUnH7-99" target="SjfyB3PK_ZTr_FAXUnH7-67" edge="1">
          <mxGeometry relative="1" as="geometry">
            <Array as="points">
              <mxPoint x="1365" y="590" />
              <mxPoint x="1365" y="590" />
            </Array>
          </mxGeometry>
        </mxCell>
        <mxCell id="SjfyB3PK_ZTr_FAXUnH7-99" value="Bye" style="ellipse;whiteSpace=wrap;html=1;" parent="1" vertex="1">
          <mxGeometry x="1335" y="810" width="60" height="40" as="geometry" />
        </mxCell>
        <mxCell id="SjfyB3PK_ZTr_FAXUnH7-130" style="edgeStyle=orthogonalEdgeStyle;rounded=0;orthogonalLoop=1;jettySize=auto;html=1;entryX=1;entryY=0.5;entryDx=0;entryDy=0;exitX=1;exitY=0;exitDx=0;exitDy=0;" parent="1" source="SjfyB3PK_ZTr_FAXUnH7-100" target="SjfyB3PK_ZTr_FAXUnH7-69" edge="1">
          <mxGeometry relative="1" as="geometry">
            <Array as="points">
              <mxPoint x="1330" y="813" />
              <mxPoint x="1330" y="600" />
            </Array>
          </mxGeometry>
        </mxCell>
        <mxCell id="SjfyB3PK_ZTr_FAXUnH7-100" value="Inform/&lt;br&gt;Deny" style="ellipse;whiteSpace=wrap;html=1;" parent="1" vertex="1">
          <mxGeometry x="1270" y="807.5" width="60" height="40" as="geometry" />
        </mxCell>
        <mxCell id="SjfyB3PK_ZTr_FAXUnH7-101" value="Negate/&lt;br&gt;Repeat" style="ellipse;whiteSpace=wrap;html=1;" parent="1" vertex="1">
          <mxGeometry x="987.5" y="751.25" width="62.5" height="38.75" as="geometry" />
        </mxCell>
        <mxCell id="SjfyB3PK_ZTr_FAXUnH7-105" value="" style="curved=1;endArrow=classic;html=1;rounded=0;entryX=1;entryY=0.5;entryDx=0;entryDy=0;exitX=1;exitY=0.5;exitDx=0;exitDy=0;" parent="1" source="SjfyB3PK_ZTr_FAXUnH7-101" target="SjfyB3PK_ZTr_FAXUnH7-83" edge="1">
          <mxGeometry width="50" height="50" relative="1" as="geometry">
            <mxPoint x="1110" y="770" as="sourcePoint" />
            <mxPoint x="1160" y="720" as="targetPoint" />
            <Array as="points">
              <mxPoint x="1070" y="740" />
            </Array>
          </mxGeometry>
        </mxCell>
        <mxCell id="SjfyB3PK_ZTr_FAXUnH7-107" value="" style="curved=1;endArrow=classic;html=1;rounded=0;entryX=1;entryY=0.5;entryDx=0;entryDy=0;exitX=1;exitY=0.5;exitDx=0;exitDy=0;" parent="1" source="EOZfHEZWJVpopu-rfC8s-10" target="SjfyB3PK_ZTr_FAXUnH7-86" edge="1">
          <mxGeometry width="50" height="50" relative="1" as="geometry">
            <mxPoint x="1297.5" y="771" as="sourcePoint" />
            <mxPoint x="1303.5" y="745" as="targetPoint" />
            <Array as="points">
              <mxPoint x="1330" y="730" />
            </Array>
          </mxGeometry>
        </mxCell>
        <mxCell id="SjfyB3PK_ZTr_FAXUnH7-120" style="edgeStyle=orthogonalEdgeStyle;rounded=0;orthogonalLoop=1;jettySize=auto;html=1;entryX=0.44;entryY=1.008;entryDx=0;entryDy=0;entryPerimeter=0;" parent="1" target="SjfyB3PK_ZTr_FAXUnH7-100" edge="1">
          <mxGeometry relative="1" as="geometry">
            <mxPoint x="1090.5" y="746.25" as="sourcePoint" />
            <mxPoint x="1297.5" y="850.25" as="targetPoint" />
            <Array as="points">
              <mxPoint x="1091" y="880" />
              <mxPoint x="1296" y="880" />
            </Array>
          </mxGeometry>
        </mxCell>
        <mxCell id="SjfyB3PK_ZTr_FAXUnH7-141" style="edgeStyle=orthogonalEdgeStyle;rounded=0;orthogonalLoop=1;jettySize=auto;html=1;" parent="1" source="SjfyB3PK_ZTr_FAXUnH7-132" target="SjfyB3PK_ZTr_FAXUnH7-99" edge="1">
          <mxGeometry relative="1" as="geometry">
            <Array as="points">
              <mxPoint x="1430" y="820" />
              <mxPoint x="1430" y="820" />
            </Array>
          </mxGeometry>
        </mxCell>
        <mxCell id="SjfyB3PK_ZTr_FAXUnH7-142" style="edgeStyle=orthogonalEdgeStyle;rounded=0;orthogonalLoop=1;jettySize=auto;html=1;entryX=0.5;entryY=1;entryDx=0;entryDy=0;" parent="1" source="SjfyB3PK_ZTr_FAXUnH7-132" target="SjfyB3PK_ZTr_FAXUnH7-98" edge="1">
          <mxGeometry relative="1" as="geometry">
            <Array as="points">
              <mxPoint x="1510" y="930" />
              <mxPoint x="970" y="930" />
            </Array>
          </mxGeometry>
        </mxCell>
        <mxCell id="SjfyB3PK_ZTr_FAXUnH7-145" style="edgeStyle=orthogonalEdgeStyle;rounded=0;orthogonalLoop=1;jettySize=auto;html=1;entryX=0;entryY=0.5;entryDx=0;entryDy=0;" parent="1" source="SjfyB3PK_ZTr_FAXUnH7-132" target="SjfyB3PK_ZTr_FAXUnH7-144" edge="1">
          <mxGeometry relative="1" as="geometry" />
        </mxCell>
        <mxCell id="SjfyB3PK_ZTr_FAXUnH7-132" value="7. Additional information" style="rounded=0;whiteSpace=wrap;html=1;" parent="1" vertex="1">
          <mxGeometry x="1450" y="780" width="120" height="60" as="geometry" />
        </mxCell>
        <mxCell id="SjfyB3PK_ZTr_FAXUnH7-150" style="edgeStyle=orthogonalEdgeStyle;rounded=0;orthogonalLoop=1;jettySize=auto;html=1;entryX=0;entryY=0.5;entryDx=0;entryDy=0;" parent="1" source="SjfyB3PK_ZTr_FAXUnH7-144" target="SjfyB3PK_ZTr_FAXUnH7-149" edge="1">
          <mxGeometry relative="1" as="geometry" />
        </mxCell>
        <mxCell id="SjfyB3PK_ZTr_FAXUnH7-144" value="Negate/&lt;br&gt;Inform" style="ellipse;whiteSpace=wrap;html=1;" parent="1" vertex="1">
          <mxGeometry x="1610" y="786.25" width="71.25" height="47.5" as="geometry" />
        </mxCell>
        <mxCell id="SjfyB3PK_ZTr_FAXUnH7-152" style="edgeStyle=orthogonalEdgeStyle;rounded=0;orthogonalLoop=1;jettySize=auto;html=1;entryX=0.36;entryY=0.983;entryDx=0;entryDy=0;entryPerimeter=0;exitX=0.184;exitY=0.999;exitDx=0;exitDy=0;exitPerimeter=0;" parent="1" source="SjfyB3PK_ZTr_FAXUnH7-149" target="SjfyB3PK_ZTr_FAXUnH7-99" edge="1">
          <mxGeometry relative="1" as="geometry">
            <Array as="points">
              <mxPoint x="1752" y="970" />
              <mxPoint x="1357" y="970" />
            </Array>
            <mxPoint x="1357" y="854" as="targetPoint" />
          </mxGeometry>
        </mxCell>
        <mxCell id="SjfyB3PK_ZTr_FAXUnH7-154" style="edgeStyle=orthogonalEdgeStyle;rounded=0;orthogonalLoop=1;jettySize=auto;html=1;exitX=0.417;exitY=1;exitDx=0;exitDy=0;entryX=0;entryY=1;entryDx=0;entryDy=0;exitPerimeter=0;" parent="1" source="SjfyB3PK_ZTr_FAXUnH7-149" target="SjfyB3PK_ZTr_FAXUnH7-98" edge="1">
          <mxGeometry relative="1" as="geometry">
            <Array as="points">
              <mxPoint x="1780" y="990" />
              <mxPoint x="949" y="990" />
            </Array>
          </mxGeometry>
        </mxCell>
        <mxCell id="SjfyB3PK_ZTr_FAXUnH7-157" style="edgeStyle=orthogonalEdgeStyle;rounded=0;orthogonalLoop=1;jettySize=auto;html=1;entryX=0.5;entryY=1;entryDx=0;entryDy=0;exitX=0.27;exitY=-0.004;exitDx=0;exitDy=0;exitPerimeter=0;" parent="1" source="SjfyB3PK_ZTr_FAXUnH7-149" target="SjfyB3PK_ZTr_FAXUnH7-156" edge="1">
          <mxGeometry relative="1" as="geometry">
            <Array as="points">
              <mxPoint x="1762" y="750" />
              <mxPoint x="1762" y="750" />
            </Array>
          </mxGeometry>
        </mxCell>
        <mxCell id="SjfyB3PK_ZTr_FAXUnH7-160" style="edgeStyle=orthogonalEdgeStyle;rounded=0;orthogonalLoop=1;jettySize=auto;html=1;entryX=0.5;entryY=1;entryDx=0;entryDy=0;" parent="1" source="SjfyB3PK_ZTr_FAXUnH7-149" target="SjfyB3PK_ZTr_FAXUnH7-159" edge="1">
          <mxGeometry relative="1" as="geometry" />
        </mxCell>
        <mxCell id="SjfyB3PK_ZTr_FAXUnH7-164" style="edgeStyle=orthogonalEdgeStyle;rounded=0;orthogonalLoop=1;jettySize=auto;html=1;exitX=0.835;exitY=1.005;exitDx=0;exitDy=0;entryX=0.01;entryY=0.591;entryDx=0;entryDy=0;entryPerimeter=0;exitPerimeter=0;" parent="1" source="SjfyB3PK_ZTr_FAXUnH7-149" target="SjfyB3PK_ZTr_FAXUnH7-162" edge="1">
          <mxGeometry relative="1" as="geometry">
            <Array as="points">
              <mxPoint x="1830" y="863" />
            </Array>
          </mxGeometry>
        </mxCell>
        <mxCell id="SjfyB3PK_ZTr_FAXUnH7-149" value="8. Suggestion" style="rounded=0;whiteSpace=wrap;html=1;" parent="1" vertex="1">
          <mxGeometry x="1730" y="780" width="120" height="60" as="geometry" />
        </mxCell>
        <mxCell id="SjfyB3PK_ZTr_FAXUnH7-158" style="edgeStyle=orthogonalEdgeStyle;rounded=0;orthogonalLoop=1;jettySize=auto;html=1;entryX=0.422;entryY=1.004;entryDx=0;entryDy=0;entryPerimeter=0;exitX=0.5;exitY=0;exitDx=0;exitDy=0;" parent="1" source="SjfyB3PK_ZTr_FAXUnH7-156" target="SjfyB3PK_ZTr_FAXUnH7-66" edge="1">
          <mxGeometry relative="1" as="geometry">
            <Array as="points">
              <mxPoint x="1762" y="350" />
              <mxPoint x="1129" y="350" />
            </Array>
          </mxGeometry>
        </mxCell>
        <mxCell id="SjfyB3PK_ZTr_FAXUnH7-156" value="Deny" style="ellipse;whiteSpace=wrap;html=1;" parent="1" vertex="1">
          <mxGeometry x="1730" y="700" width="63.75" height="42.5" as="geometry" />
        </mxCell>
        <mxCell id="SjfyB3PK_ZTr_FAXUnH7-161" style="edgeStyle=orthogonalEdgeStyle;rounded=0;orthogonalLoop=1;jettySize=auto;html=1;entryX=0.705;entryY=0.013;entryDx=0;entryDy=0;entryPerimeter=0;" parent="1" source="SjfyB3PK_ZTr_FAXUnH7-159" target="SjfyB3PK_ZTr_FAXUnH7-149" edge="1">
          <mxGeometry relative="1" as="geometry" />
        </mxCell>
        <mxCell id="SjfyB3PK_ZTr_FAXUnH7-159" value="Reqalts/&lt;br&gt;Reqmore" style="ellipse;whiteSpace=wrap;html=1;" parent="1" vertex="1">
          <mxGeometry x="1870" y="730" width="75" height="50" as="geometry" />
        </mxCell>
        <mxCell id="SjfyB3PK_ZTr_FAXUnH7-166" style="edgeStyle=orthogonalEdgeStyle;rounded=0;orthogonalLoop=1;jettySize=auto;html=1;entryX=0;entryY=0.5;entryDx=0;entryDy=0;" parent="1" source="SjfyB3PK_ZTr_FAXUnH7-162" target="SjfyB3PK_ZTr_FAXUnH7-163" edge="1">
          <mxGeometry relative="1" as="geometry" />
        </mxCell>
        <mxCell id="SjfyB3PK_ZTr_FAXUnH7-162" value="Request" style="ellipse;whiteSpace=wrap;html=1;" parent="1" vertex="1">
          <mxGeometry x="1860" y="833.75" width="70" height="50" as="geometry" />
        </mxCell>
        <mxCell id="SjfyB3PK_ZTr_FAXUnH7-172" style="edgeStyle=orthogonalEdgeStyle;rounded=0;orthogonalLoop=1;jettySize=auto;html=1;entryX=0.5;entryY=1;entryDx=0;entryDy=0;exitX=0.516;exitY=-0.002;exitDx=0;exitDy=0;exitPerimeter=0;" parent="1" source="SjfyB3PK_ZTr_FAXUnH7-163" target="SjfyB3PK_ZTr_FAXUnH7-167" edge="1">
          <mxGeometry relative="1" as="geometry">
            <Array as="points">
              <mxPoint x="2043" y="829" />
            </Array>
          </mxGeometry>
        </mxCell>
        <mxCell id="SjfyB3PK_ZTr_FAXUnH7-178" style="edgeStyle=orthogonalEdgeStyle;rounded=0;orthogonalLoop=1;jettySize=auto;html=1;entryX=0.5;entryY=0;entryDx=0;entryDy=0;" parent="1" source="SjfyB3PK_ZTr_FAXUnH7-163" target="SjfyB3PK_ZTr_FAXUnH7-177" edge="1">
          <mxGeometry relative="1" as="geometry" />
        </mxCell>
        <mxCell id="SjfyB3PK_ZTr_FAXUnH7-163" value="9. Give details" style="rounded=0;whiteSpace=wrap;html=1;" parent="1" vertex="1">
          <mxGeometry x="1980" y="828.75" width="120" height="60" as="geometry" />
        </mxCell>
        <mxCell id="SjfyB3PK_ZTr_FAXUnH7-173" style="edgeStyle=orthogonalEdgeStyle;rounded=0;orthogonalLoop=1;jettySize=auto;html=1;entryX=1;entryY=0.5;entryDx=0;entryDy=0;exitX=0.5;exitY=0;exitDx=0;exitDy=0;" parent="1" source="SjfyB3PK_ZTr_FAXUnH7-167" target="SjfyB3PK_ZTr_FAXUnH7-67" edge="1">
          <mxGeometry relative="1" as="geometry">
            <Array as="points">
              <mxPoint x="2043" y="410" />
            </Array>
            <mxPoint x="1990" y="707.5" as="sourcePoint" />
            <mxPoint x="1395" y="400" as="targetPoint" />
          </mxGeometry>
        </mxCell>
        <mxCell id="SjfyB3PK_ZTr_FAXUnH7-167" value="Bye/&lt;br&gt;Ack/&lt;br&gt;Thankyou/&lt;br&gt;Confirm/&lt;br&gt;Affirm" style="ellipse;whiteSpace=wrap;html=1;" parent="1" vertex="1">
          <mxGeometry x="2007.5" y="652.5" width="70" height="110" as="geometry" />
        </mxCell>
        <mxCell id="SjfyB3PK_ZTr_FAXUnH7-174" style="edgeStyle=orthogonalEdgeStyle;rounded=0;orthogonalLoop=1;jettySize=auto;html=1;entryX=0.5;entryY=1;entryDx=0;entryDy=0;" parent="1" target="SjfyB3PK_ZTr_FAXUnH7-176" edge="1">
          <mxGeometry relative="1" as="geometry">
            <mxPoint x="2100" y="850" as="sourcePoint" />
          </mxGeometry>
        </mxCell>
        <mxCell id="SjfyB3PK_ZTr_FAXUnH7-175" style="edgeStyle=orthogonalEdgeStyle;rounded=0;orthogonalLoop=1;jettySize=auto;html=1;entryX=0.75;entryY=0;entryDx=0;entryDy=0;" parent="1" source="SjfyB3PK_ZTr_FAXUnH7-176" target="SjfyB3PK_ZTr_FAXUnH7-163" edge="1">
          <mxGeometry relative="1" as="geometry">
            <mxPoint x="2070" y="820.76" as="targetPoint" />
          </mxGeometry>
        </mxCell>
        <mxCell id="SjfyB3PK_ZTr_FAXUnH7-176" value="Repeat/&lt;br&gt;Request" style="ellipse;whiteSpace=wrap;html=1;" parent="1" vertex="1">
          <mxGeometry x="2125" y="769.76" width="75" height="50" as="geometry" />
        </mxCell>
        <mxCell id="SjfyB3PK_ZTr_FAXUnH7-179" style="edgeStyle=orthogonalEdgeStyle;rounded=0;orthogonalLoop=1;jettySize=auto;html=1;entryX=0.656;entryY=0.992;entryDx=0;entryDy=0;entryPerimeter=0;" parent="1" source="SjfyB3PK_ZTr_FAXUnH7-177" target="SjfyB3PK_ZTr_FAXUnH7-149" edge="1">
          <mxGeometry relative="1" as="geometry">
            <mxPoint x="1803" y="840" as="targetPoint" />
          </mxGeometry>
        </mxCell>
        <mxCell id="SjfyB3PK_ZTr_FAXUnH7-177" value="Deny/&lt;br&gt;Reqalts" style="ellipse;whiteSpace=wrap;html=1;" parent="1" vertex="1">
          <mxGeometry x="2002.5" y="910" width="75" height="50" as="geometry" />
        </mxCell>
        <mxCell id="EOZfHEZWJVpopu-rfC8s-2" value="" style="curved=1;endArrow=classic;html=1;rounded=0;exitX=1;exitY=0.5;exitDx=0;exitDy=0;" parent="1" source="EOZfHEZWJVpopu-rfC8s-4" edge="1">
          <mxGeometry width="50" height="50" relative="1" as="geometry">
            <mxPoint x="1190" y="780" as="sourcePoint" />
            <mxPoint x="1160" y="723" as="targetPoint" />
            <Array as="points">
              <mxPoint x="1190" y="734" />
            </Array>
          </mxGeometry>
        </mxCell>
        <mxCell id="EOZfHEZWJVpopu-rfC8s-4" value="Negate/&lt;br&gt;Repeat" style="ellipse;whiteSpace=wrap;html=1;" parent="1" vertex="1">
          <mxGeometry x="1117.5" y="752.5" width="62.5" height="38.75" as="geometry" />
        </mxCell>
        <mxCell id="EOZfHEZWJVpopu-rfC8s-7" style="edgeStyle=orthogonalEdgeStyle;rounded=0;orthogonalLoop=1;jettySize=auto;html=1;entryX=0.556;entryY=0;entryDx=0;entryDy=0;entryPerimeter=0;" parent="1" source="SjfyB3PK_ZTr_FAXUnH7-69" target="SjfyB3PK_ZTr_FAXUnH7-85" edge="1">
          <mxGeometry relative="1" as="geometry" />
        </mxCell>
        <mxCell id="EOZfHEZWJVpopu-rfC8s-9" value="" style="curved=1;endArrow=classic;html=1;rounded=0;entryX=0;entryY=0.5;entryDx=0;entryDy=0;exitX=0.5;exitY=1;exitDx=0;exitDy=0;" parent="1" source="SjfyB3PK_ZTr_FAXUnH7-85" target="EOZfHEZWJVpopu-rfC8s-4" edge="1">
          <mxGeometry width="50" height="50" relative="1" as="geometry">
            <mxPoint x="1127.5" y="796.5" as="sourcePoint" />
            <mxPoint x="1107.5" y="743.5" as="targetPoint" />
            <Array as="points">
              <mxPoint x="1100" y="750" />
            </Array>
          </mxGeometry>
        </mxCell>
        <mxCell id="EOZfHEZWJVpopu-rfC8s-10" value="Negate/&lt;br&gt;Repeat" style="ellipse;whiteSpace=wrap;html=1;" parent="1" vertex="1">
          <mxGeometry x="1250" y="750.25" width="70" height="39.75" as="geometry" />
        </mxCell>
        <mxCell id="EOZfHEZWJVpopu-rfC8s-17" value="" style="curved=1;endArrow=classic;html=1;rounded=0;entryX=0;entryY=0.5;entryDx=0;entryDy=0;exitX=0.5;exitY=1;exitDx=0;exitDy=0;" parent="1" target="SjfyB3PK_ZTr_FAXUnH7-101" edge="1">
          <mxGeometry width="50" height="50" relative="1" as="geometry">
            <mxPoint x="987.5" y="745" as="sourcePoint" />
            <mxPoint x="983.5" y="763" as="targetPoint" />
            <Array as="points">
              <mxPoint x="972.5" y="749" />
            </Array>
          </mxGeometry>
        </mxCell>
        <mxCell id="EOZfHEZWJVpopu-rfC8s-18" value="" style="curved=1;endArrow=classic;html=1;rounded=0;entryX=0;entryY=0.5;entryDx=0;entryDy=0;exitX=0.5;exitY=1;exitDx=0;exitDy=0;" parent="1" target="EOZfHEZWJVpopu-rfC8s-10" edge="1">
          <mxGeometry width="50" height="50" relative="1" as="geometry">
            <mxPoint x="1250" y="747.5" as="sourcePoint" />
            <mxPoint x="1246" y="765.5" as="targetPoint" />
            <Array as="points">
              <mxPoint x="1235" y="751.5" />
            </Array>
          </mxGeometry>
        </mxCell>
      </root>
    </mxGraphModel>
  </diagram>
</mxfile>
